<svg width="16" height="16" viewBox="0 0 16 16" fill="none" xmlns="http://www.w3.org/2000/svg">
<g clip-path="url(#clip0_102_69)">
<path d="M4.67058 13.6667C2.68125 12.22 1.93058 9.91267 3.21925 7.47067C3.30458 7.308 3.55925 7.366 3.60991 7.54C3.79991 8.16333 4.18325 8.47667 4.18325 8.47667C4.05925 8.194 3.58658 5.13667 5.86658 3.73133C5.99791 3.65 6.16058 3.77 6.13725 3.92467C6.03725 4.70667 5.95925 6.38667 7.30658 5.91467C8.52925 5.488 7.65058 3.25133 7.20191 2.284C7.12458 2.12533 7.28325 1.95067 7.44591 2.01267C10.1552 3.13533 12.2686 4.95467 11.5059 8.256C11.7072 8.29467 12.3692 8.17867 12.7446 7.62933C12.8412 7.486 13.0699 7.478 13.1159 7.64467C13.4919 8.914 14.0452 12.2387 11.0919 14C10.9565 13.675 10.7471 13.386 10.4806 13.156C10.4492 13.1327 10.4219 13.1407 10.3992 13.172C10.2826 13.3307 9.89591 13.8187 9.51258 13.8493C8.81591 13.9027 8.42125 13.1327 8.59525 12.2933C8.61525 12.2 8.52925 12.1113 8.44058 12.138C7.33391 12.498 7.04725 13.2413 7.04725 13.2413C6.56725 12.8507 6.14525 12.1187 6.23391 10.47C6.24191 10.346 6.08725 10.2847 6.01725 10.3927C5.58791 11.0427 4.73258 12.4713 4.66658 13.6673L4.67058 13.6667Z" fill="#FF0040"/>
</g>
<defs>
<clipPath id="clip0_102_69">
<rect width="16" height="16" fill="white"/>
</clipPath>
</defs>
</svg>
